<svg width="20" height="20" viewBox="0 0 20 20" fill="none" xmlns="http://www.w3.org/2000/svg">
<path d="M9.99984 18.3335C5.40817 18.3335 1.6665 14.5918 1.6665 10.0002C1.6665 5.4085 5.40817 1.66683 9.99984 1.66683C14.5915 1.66683 18.3332 5.4085 18.3332 10.0002C18.3332 14.5918 14.5915 18.3335 9.99984 18.3335ZM9.37484 13.3335C9.37484 13.6752 9.65817 13.9585 9.99984 13.9585C10.3415 13.9585 10.6248 13.6752 10.6248 13.3335L10.6248 9.16683C10.6248 8.82516 10.3415 8.54183 9.99984 8.54183C9.65817 8.54183 9.37484 8.82516 9.37484 9.16683V13.3335ZM10.7665 6.35016C10.7248 6.24183 10.6665 6.1585 10.5915 6.07516C10.5082 6.00016 10.4165 5.94183 10.3165 5.90016C10.2165 5.8585 10.1082 5.8335 9.99984 5.8335C9.8915 5.8335 9.78317 5.8585 9.68317 5.90016C9.58317 5.94183 9.4915 6.00016 9.40817 6.07516C9.33317 6.1585 9.27484 6.24183 9.23317 6.35016C9.1915 6.45016 9.1665 6.5585 9.1665 6.66683C9.1665 6.77516 9.1915 6.8835 9.23317 6.9835C9.27484 7.0835 9.33317 7.17516 9.40817 7.2585C9.4915 7.3335 9.58317 7.39183 9.68317 7.4335C9.88317 7.51683 10.1165 7.51683 10.3165 7.4335C10.4165 7.39183 10.5082 7.3335 10.5915 7.2585C10.6665 7.17516 10.7248 7.0835 10.7665 6.9835C10.8082 6.8835 10.8332 6.77516 10.8332 6.66683C10.8332 6.5585 10.8082 6.45016 10.7665 6.35016Z" fill="#F1F4F7"/>
</svg>
