<svg width="48" height="48" viewBox="0 0 48 48" fill="none" xmlns="http://www.w3.org/2000/svg">
<g clip-path="url(#clip0_1900_19217)">
<path fill-rule="evenodd" clip-rule="evenodd" d="M36.8026 4C40.3354 4 43.2026 6.89477 43.2026 10.4615V23.3846C43.2026 26.2122 41.4054 28.6159 38.8966 29.4895L38.5792 29.4119V25.6849C38.5792 22.0458 35.5891 19.3423 32.2202 19.3423C28.8512 19.3423 25.8611 22.0406 25.8611 25.6849V29.8462H6.4C2.8672 29.8462 0 26.9514 0 23.3846V10.4615C0 6.89477 2.8672 4 6.4 4H36.8026ZM10.7315 11.7435C10.1069 11.1129 9.09312 11.1129 8.46848 11.7435C7.84384 12.3742 7.84384 13.3977 8.46848 14.0283L11.3408 16.9231L8.4736 19.8178C7.84896 20.4485 7.84896 21.472 8.4736 22.1026C9.09824 22.7333 10.112 22.7333 10.7366 22.1026L13.6038 19.2079L16.471 22.1026C17.0957 22.7333 18.1094 22.7333 18.7341 22.1026C19.3587 21.472 19.3587 20.4485 18.7341 19.8178L15.8669 16.9231L18.7392 14.0283C19.3638 13.3977 19.3638 12.3742 18.7392 11.7435C18.1146 11.1129 17.1008 11.1129 16.4762 11.7435L13.609 14.6434L10.7418 11.7435H10.7315Z" fill="#9FA3B7"/>
<path d="M32.2204 21.7718C30.0853 21.7718 28.2626 23.4724 28.2626 25.69V35.0412C27.3 34.2916 26.0303 33.5731 24.5711 33.5731C22.5282 33.5731 20.8591 35.1859 20.8028 37.2019C20.7823 37.9618 21.0792 38.5873 21.238 38.9078L24.2895 45.1005C24.5608 45.6484 25.1138 45.9948 25.7231 45.9948H46.4028C47.2885 45.9948 48.0002 45.2711 48.0002 44.382V41.8336C48.0002 37.357 44.964 33.4594 40.653 32.41L36.1832 31.3193V25.6849C36.1832 23.4673 34.3554 21.7666 32.2255 21.7666L32.2204 21.7718Z" fill="#9FA3B7"/>
</g>
<defs>
<clipPath id="clip0_1900_19217">
<rect width="48" height="48" fill="white"/>
</clipPath>
</defs>
</svg>
