<svg width="28" height="28" viewBox="0 0 28 28" fill="none" xmlns="http://www.w3.org/2000/svg">
<rect width="28" height="28" rx="4" fill="#2A2F4C"/>
<path d="M14.2159 12.1802H17.2784" stroke="white" stroke-linecap="round" stroke-linejoin="round"/>
<path d="M10.7216 12.1802C10.9633 12.4218 11.355 12.4218 11.5966 12.1802L12.4716 11.3052" stroke="white" stroke-linecap="round" stroke-linejoin="round"/>
<path d="M14.2159 16.2632H17.2784" stroke="white" stroke-linecap="round" stroke-linejoin="round"/>
<path d="M10.7216 16.2632C10.9633 16.5048 11.355 16.5048 11.5966 16.2632L12.4716 15.3882" stroke="white" stroke-linecap="round" stroke-linejoin="round"/>
<path d="M12.25 19.8332H15.75C18.6667 19.8332 19.8334 18.6665 19.8334 15.7498V12.2498C19.8334 9.33317 18.6667 8.1665 15.75 8.1665H12.25C9.33335 8.1665 8.16669 9.33317 8.16669 12.2498V15.7498C8.16669 18.6665 9.33335 19.8332 12.25 19.8332Z" stroke="white" stroke-linecap="round" stroke-linejoin="round"/>
</svg>
