<svg width="28" height="28" viewBox="0 0 28 28" fill="none" xmlns="http://www.w3.org/2000/svg">
<rect width="28" height="28" rx="4" fill="#016DFF"/>
<path d="M19.25 11.0832V16.9165C19.25 18.6665 18.375 19.8332 16.3333 19.8332H11.6667C9.625 19.8332 8.75 18.6665 8.75 16.9165V11.0832C8.75 9.33317 9.625 8.1665 11.6667 8.1665H16.3333C18.375 8.1665 19.25 9.33317 19.25 11.0832Z" fill="#016DFF" stroke="white" stroke-miterlimit="10" stroke-linecap="round" stroke-linejoin="round"/>
<path d="M15.4584 8.75V10.7917C15.4584 11.4333 15.9834 11.9583 16.625 11.9583H19.25" fill="#016DFF"/>
<path d="M15.4584 8.75V10.7917C15.4584 11.4333 15.9834 11.9583 16.625 11.9583H19.25" stroke="white" stroke-miterlimit="10" stroke-linecap="round" stroke-linejoin="round"/>
<path d="M12.8333 14.5835L11.6666 15.7502L12.8333 16.9168" fill="#016DFF"/>
<path d="M12.8333 14.5835L11.6666 15.7502L12.8333 16.9168" stroke="white" stroke-miterlimit="10" stroke-linecap="round" stroke-linejoin="round"/>
<path d="M15.1666 14.5835L16.3333 15.7502L15.1666 16.9168" fill="#016DFF"/>
<path d="M15.1666 14.5835L16.3333 15.7502L15.1666 16.9168" stroke="white" stroke-miterlimit="10" stroke-linecap="round" stroke-linejoin="round"/>
</svg>
