<svg width="28" height="28" viewBox="0 0 28 28" fill="none" xmlns="http://www.w3.org/2000/svg">
<rect width="28" height="28" rx="4" fill="#99FF4B"/>
<path d="M19.8333 15.9832V12.0165C19.8333 11.1415 19.46 10.7915 18.5325 10.7915H16.1758C15.2483 10.7915 14.875 11.1415 14.875 12.0165V15.9832C14.875 16.8582 15.2483 17.2082 16.1758 17.2082H18.5325C19.46 17.2082 19.8333 16.8582 19.8333 15.9832Z" fill="#99FF4B" stroke="#2A2F4C" stroke-linecap="round" stroke-linejoin="round"/>
<path d="M13.125 14.6415V18.6082C13.125 19.4832 12.7517 19.8332 11.8242 19.8332H9.46752C8.54002 19.8332 8.16669 19.4832 8.16669 18.6082V14.6415C8.16669 13.7665 8.54002 13.4165 9.46752 13.4165H11.8242C12.7517 13.4165 13.125 13.7665 13.125 14.6415Z" fill="#99FF4B" stroke="#2A2F4C" stroke-linecap="round" stroke-linejoin="round"/>
<path d="M13.125 9.3915V10.4415C13.125 11.3165 12.7517 11.6665 11.8242 11.6665H9.46752C8.54002 11.6665 8.16669 11.3165 8.16669 10.4415V9.3915C8.16669 8.5165 8.54002 8.1665 9.46752 8.1665H11.8242C12.7517 8.1665 13.125 8.5165 13.125 9.3915Z" fill="#99FF4B" stroke="#2A2F4C" stroke-linecap="round" stroke-linejoin="round"/>
</svg>
