<svg width="25" height="24" viewBox="0 0 25 24" fill="none" xmlns="http://www.w3.org/2000/svg">
<path d="M10.7401 22.7496C10.5401 22.7496 10.3801 22.7096 10.2601 22.6596C9.86008 22.5096 9.18008 22.0196 9.18008 20.4696L10.1801 14.0196H6.84008C5.50008 14.0196 5.02008 13.3896 4.85008 13.0196C4.68008 12.6396 4.53008 11.8696 5.41008 10.8596L12.9801 2.25964C14.0001 1.09964 14.8301 1.17964 15.2301 1.32964C15.6301 1.47964 16.3101 1.96964 16.3101 3.51964L15.3101 9.96964H18.6501C19.9901 9.96964 20.4701 10.5996 20.6401 10.9696C20.8101 11.3496 20.9601 12.1196 20.0801 13.1296L12.5101 21.7296C11.8001 22.5396 11.1801 22.7496 10.7401 22.7496Z" fill="#9FA3B7"/>
</svg>
