<svg width="24" height="24" viewBox="0 0 24 24" fill="none" xmlns="http://www.w3.org/2000/svg">
<g clip-path="url(#clip0_51_1191)">
<path d="M3.29385 12.2067C3.68565 12.5985 4.32023 12.5985 4.70963 12.2067L5.41872 11.4976L11.7933 17.8722L11.0842 18.5813C10.6924 18.9731 10.6924 19.6077 11.0842 19.9971C11.476 20.3865 12.1106 20.3889 12.5 19.9971L13.9158 18.5813L16.0406 16.4564L20.2904 20.7061C20.6822 21.0979 21.3167 21.0979 21.7061 20.7061C22.098 20.3143 22.098 19.6798 21.7061 19.2904L17.4564 15.0406L19.5813 12.9158L20.9971 11.5C21.3889 11.1082 21.3889 10.4736 20.9971 10.0842C20.6053 9.69483 19.9707 9.69242 19.5813 10.0842L18.8722 10.7933L12.4976 4.41872L13.2067 3.70963C13.5985 3.31783 13.5985 2.68325 13.2067 2.29385C12.8149 1.90205 12.1803 1.90205 11.7909 2.29385L10.3751 3.70963L4.70963 9.37513L3.29385 10.7909C2.90205 11.1803 2.90205 11.8149 3.29385 12.2067Z" fill="#9FA3B7"/>
</g>
<defs>
<clipPath id="clip0_51_1191">
<rect width="24" height="24" fill="white"/>
</clipPath>
</defs>
</svg>
