<svg width="20" height="20" viewBox="0 0 20 20" fill="currentColor" xmlns="http://www.w3.org/2000/svg">
<path d="M1.99257 5.82362C2.20007 5.46521 2.65949 5.34274 3.01796 5.55019L9.9994 9.5912L16.933 5.57558C17.2914 5.36814 17.7498 5.49067 17.9574 5.84901C18.1648 6.20729 18.043 6.66575 17.685 6.87343L10.3764 11.1068C10.1439 11.2415 9.85689 11.2414 9.62441 11.1068L2.26601 6.84901C1.90759 6.64151 1.78512 6.18209 1.99257 5.82362Z"/>
<path d="M9.25049 18.0088V10.4502C9.25049 10.036 9.58627 9.7002 10.0005 9.7002C10.4147 9.7002 10.7505 10.036 10.7505 10.4502V18.0088C10.7504 18.4229 10.4146 18.7588 10.0005 18.7588C9.58636 18.7588 9.25063 18.4229 9.25049 18.0088Z"/>
<path d="M17.2583 10.6924V7.6416C17.2582 7.23276 17.1062 6.72618 16.8237 6.24707C16.5412 5.76788 16.1711 5.38832 15.812 5.18945H15.811L11.3618 2.72266L11.2251 2.6543C10.8994 2.50603 10.4661 2.41705 10.0005 2.41699C9.53471 2.41699 9.10069 2.50598 8.7749 2.6543L8.63818 2.72266L4.18896 5.18945H4.18799C3.8289 5.38833 3.45881 5.76789 3.17627 6.24707C2.8938 6.72617 2.7418 7.23276 2.7417 7.6416V12.3584C2.7417 12.7673 2.89366 13.2746 3.17627 13.7539C3.45873 14.2329 3.82901 14.6116 4.18799 14.8105L4.18896 14.8115L8.63818 17.2773L8.64209 17.2793C8.9774 17.4675 9.46826 17.584 10.0005 17.584C10.5325 17.5839 11.0227 17.4675 11.3579 17.2793C11.7191 17.0767 12.1767 17.2053 12.3794 17.5664C12.5821 17.9276 12.4535 18.3851 12.0923 18.5879C11.4777 18.9329 10.7181 19.0839 10.0005 19.084C9.28271 19.084 8.52241 18.933 7.90771 18.5879V18.5869L3.46143 16.123C2.81233 15.7636 2.26623 15.1634 1.88428 14.5156C1.50231 13.8678 1.2417 13.0995 1.2417 12.3584V7.6416C1.24179 6.90075 1.50245 6.13298 1.88428 5.48535C2.2662 4.83763 2.81238 4.23743 3.46143 3.87793L7.91162 1.41113C8.52566 1.0675 9.28412 0.916992 10.0005 0.916992C10.7167 0.917058 11.4745 1.06759 12.0884 1.41113L16.5386 3.87793L16.7769 4.02344C17.3215 4.38799 17.7815 4.91852 18.1157 5.48535C18.4976 6.13298 18.7582 6.90074 18.7583 7.6416V10.6924C18.7581 11.1064 18.4224 11.4424 18.0083 11.4424C17.5942 11.4424 17.2585 11.1064 17.2583 10.6924Z"/>
<path d="M17.9165 15.167C17.9165 14.1085 17.0589 13.2502 16.0005 13.25C14.9419 13.25 14.0835 14.1084 14.0835 15.167C14.0837 16.2254 14.942 17.083 16.0005 17.083C17.0588 17.0828 17.9163 16.2253 17.9165 15.167ZM19.4165 15.167C19.4163 17.0537 17.8872 18.5828 16.0005 18.583C14.1136 18.583 12.5837 17.0538 12.5835 15.167C12.5835 13.28 14.1135 11.75 16.0005 11.75C17.8873 11.7502 19.4165 13.2801 19.4165 15.167Z"/>
<path d="M17.8032 16.9697C18.0961 16.6768 18.5708 16.6768 18.8637 16.9697L19.6967 17.8027C19.9896 18.0956 19.9896 18.5703 19.6967 18.8632C19.4038 19.1561 18.9291 19.1561 18.6362 18.8632L17.8032 18.0302C17.5103 17.7373 17.5103 17.2626 17.8032 16.9697Z"/>
</svg>
