<svg width="20" height="20" viewBox="0 0 20 20" fill="currentColor" xmlns="http://www.w3.org/2000/svg">
<path d="M13.3335 0.941406C14.9297 0.94141 16.1893 1.40084 17.0415 2.31836C17.8847 3.22638 18.2251 4.47194 18.2251 5.83301V14.166C18.2251 15.5271 17.8847 16.7726 17.0415 17.6807C16.1893 18.5982 14.9297 19.0586 13.3335 19.0586H6.6665C5.07033 19.0585 3.81065 18.5982 2.9585 17.6807C2.11533 16.7726 1.7749 15.5271 1.7749 14.166V5.83301C1.7749 4.47194 2.11533 3.22638 2.9585 2.31836C3.81065 1.4008 5.07034 0.941465 6.6665 0.941406H13.3335ZM6.6665 2.3916C5.34666 2.39166 4.52303 2.76501 4.021 3.30566C3.51 3.85607 3.2251 4.69436 3.2251 5.83301V14.166C3.2251 15.3046 3.51002 16.143 4.021 16.6934C4.52303 17.234 5.34666 17.6074 6.6665 17.6074H13.3335C14.6535 17.6074 15.4769 17.234 15.979 16.6934C16.49 16.143 16.7749 15.3047 16.7749 14.166V5.83301C16.7749 4.69432 16.49 3.85607 15.979 3.30566C15.4769 2.76502 14.6534 2.39161 13.3335 2.3916H6.6665ZM13.3335 13.4414C13.7338 13.4414 14.059 13.7657 14.0591 14.166C14.0591 14.5664 13.7339 14.8916 13.3335 14.8916H6.6665C6.26622 14.8915 5.94189 14.5663 5.94189 14.166C5.942 13.7658 6.26628 13.4415 6.6665 13.4414H13.3335ZM10.0005 10.1084C10.4006 10.1086 10.725 10.4328 10.7251 10.833C10.7251 11.2333 10.4007 11.5584 10.0005 11.5586H6.6665C6.26622 11.5585 5.94189 11.2333 5.94189 10.833C5.94203 10.4328 6.2663 10.1085 6.6665 10.1084H10.0005ZM12.0835 3.02539C12.4838 3.02539 12.8089 3.34973 12.8091 3.75V5.41699C12.8091 5.93324 13.2342 6.3584 13.7505 6.3584H15.4165C15.8169 6.3584 16.1421 6.68358 16.1421 7.08398C16.1419 7.48423 15.8168 7.80859 15.4165 7.80859H13.7505C12.4334 7.80859 11.3579 6.73406 11.3579 5.41699V3.75C11.3581 3.34974 11.6832 3.0254 12.0835 3.02539Z"/>
</svg>
