<svg width="20" height="20" viewBox="0 0 20 20" fill="currentColor" xmlns="http://www.w3.org/2000/svg">
<path d="M16.4248 5.93359C16.4248 5.60355 16.2943 5.2103 16.0469 4.85254C15.7992 4.49454 15.478 4.23399 15.1709 4.11914H15.1699L11.0117 2.56152V2.56055C10.7637 2.47143 10.3985 2.41504 10.002 2.41504C9.60107 2.41506 9.24008 2.47332 9.00391 2.56152L9.00293 2.56055L4.84766 4.12695L4.8457 4.12793C4.53855 4.24289 4.21744 4.50309 3.96973 4.86035C3.72192 5.2178 3.59185 5.60878 3.5918 5.93359V12.125C3.5918 12.4676 3.71033 12.9203 3.93555 13.3682C4.16078 13.8159 4.45458 14.184 4.73242 14.3916L8.31543 17.0664L8.31738 17.0674C8.752 17.3941 9.36302 17.5801 10.0088 17.5801C10.6544 17.58 11.2647 17.394 11.6992 17.0674L11.7012 17.0664L15.2842 14.3916L15.3896 14.3066C15.6351 14.0911 15.884 13.76 16.0811 13.3682C16.3063 12.9202 16.4248 12.4676 16.4248 12.125V5.93359ZM17.9248 12.125C17.9248 12.7656 17.7184 13.4514 17.4209 14.043C17.1233 14.6346 16.6963 15.2088 16.1826 15.5928H16.1816L12.5986 18.2686L12.5977 18.2676C11.8577 18.8228 10.9161 19.08 10.0088 19.0801C9.10107 19.0801 8.15811 18.8233 7.41797 18.2676L3.83496 15.5928C3.3212 15.2088 2.89338 14.6347 2.5957 14.043C2.29815 13.4514 2.0918 12.7656 2.0918 12.125V5.93359C2.09185 5.24193 2.35405 4.55866 2.7373 4.00586C3.12068 3.45294 3.66939 2.96614 4.32031 2.72266L8.47754 1.15723L8.47949 1.15625C8.93485 0.986194 9.48638 0.915063 10.002 0.915039C10.454 0.915039 10.9342 0.969602 11.3555 1.0957L11.5322 1.1543L11.5381 1.15625L15.6963 2.71484L15.9355 2.81738C16.4821 3.08114 16.9447 3.51391 17.2803 3.99902C17.6639 4.55355 17.9248 5.23887 17.9248 5.93359V12.125Z"/>
<path d="M11.9365 7.12001C12.2293 6.82715 12.7041 6.82722 12.997 7.12001C13.2899 7.4129 13.2899 7.88767 12.997 8.18056L9.41401 11.7636C9.12111 12.0565 8.64635 12.0565 8.35346 11.7636L7.01166 10.4227C6.71877 10.1299 6.71877 9.65412 7.01166 9.36122C7.3045 9.06863 7.77937 9.06863 8.07221 9.36122L8.88373 10.1727L11.9365 7.12001Z" />
</svg>
