<svg width="25" height="25" viewBox="0 0 25 25" fill="none" xmlns="http://www.w3.org/2000/svg">
<path d="M21.3582 1.54102H18.4182C17.5482 1.54102 16.9082 1.90102 16.6182 2.54102C16.4582 2.83102 16.3882 3.17102 16.3882 3.57102V6.51102C16.3882 7.78102 17.1482 8.54102 18.4182 8.54102H21.3582C21.7582 8.54102 22.0982 8.47102 22.3882 8.31102C23.0282 8.02102 23.3882 7.38102 23.3882 6.51102V3.57102C23.3882 2.30102 22.6282 1.54102 21.3582 1.54102ZM22.2982 5.47102C22.1982 5.57102 22.0482 5.64102 21.8882 5.65102H20.4782V6.16102L20.4882 7.04102C20.4782 7.21102 20.4182 7.35102 20.2982 7.47102C20.1982 7.57102 20.0482 7.64102 19.8882 7.64102C19.5582 7.64102 19.2882 7.37102 19.2882 7.04102V5.64102L17.8882 5.65102C17.5582 5.65102 17.2882 5.37102 17.2882 5.04102C17.2882 4.71102 17.5582 4.44102 17.8882 4.44102L18.7682 4.45102H19.2882V3.05102C19.2882 2.72102 19.5582 2.44102 19.8882 2.44102C20.2182 2.44102 20.4882 2.72102 20.4882 3.05102L20.4782 3.76102V4.44102H21.8882C22.2182 4.44102 22.4882 4.71102 22.4882 5.04102C22.4782 5.21102 22.4082 5.35102 22.2982 5.47102Z" fill="#9FA3B7"/>
<path d="M9.3883 10.9211C10.7027 10.9211 11.7683 9.85557 11.7683 8.54113C11.7683 7.2267 10.7027 6.16113 9.3883 6.16113C8.07386 6.16113 7.0083 7.2267 7.0083 8.54113C7.0083 9.85557 8.07386 10.9211 9.3883 10.9211Z" fill="#9FA3B7"/>
<path d="M21.3582 8.54102H20.8882V13.151L20.7582 13.041C19.9782 12.371 18.7182 12.371 17.9382 13.041L13.7782 16.611C12.9982 17.281 11.7382 17.281 10.9582 16.611L10.6182 16.331C9.90818 15.711 8.77818 15.651 7.97818 16.191L4.23818 18.701C4.01818 18.141 3.88818 17.491 3.88818 16.731V8.35102C3.88818 5.53102 5.37818 4.04102 8.19818 4.04102H16.3882V3.57102C16.3882 3.17102 16.4582 2.83102 16.6182 2.54102H8.19818C4.55818 2.54102 2.38818 4.71102 2.38818 8.35102V16.731C2.38818 17.821 2.57818 18.771 2.94818 19.571C3.80818 21.471 5.64818 22.541 8.19818 22.541H16.5782C20.2182 22.541 22.3882 20.371 22.3882 16.731V8.31102C22.0982 8.47102 21.7582 8.54102 21.3582 8.54102Z" fill="#9FA3B7"/>
</svg>
