<svg width="16" height="16" viewBox="0 0 16 16" fill="none" xmlns="http://www.w3.org/2000/svg">
<path d="M10.1601 14.8467H10.0734C7.11338 14.8467 5.68672 13.68 5.44005 11.0667C5.41338 10.7933 5.61338 10.5467 5.89338 10.52C6.16005 10.4933 6.41338 10.7 6.44005 10.9733C6.63338 13.0667 7.62005 13.8467 10.0801 13.8467H10.1667C12.8801 13.8467 13.8401 12.8867 13.8401 10.1733V5.82665C13.8401 3.11332 12.8801 2.15332 10.1667 2.15332H10.0801C7.60672 2.15332 6.62005 2.94665 6.44005 5.07999C6.40672 5.35332 6.17338 5.55999 5.89338 5.53332C5.61338 5.51332 5.41338 5.26665 5.43338 4.99332C5.66005 2.33999 7.09338 1.15332 10.0734 1.15332H10.1601C13.4334 1.15332 14.8334 2.55332 14.8334 5.82665V10.1733C14.8334 13.4467 13.4334 14.8467 10.1601 14.8467Z" fill="currentColor"/>
<path d="M10 8.5H2.41333C2.14 8.5 1.91333 8.27333 1.91333 8C1.91333 7.72667 2.14 7.5 2.41333 7.5H10C10.2733 7.5 10.5 7.72667 10.5 8C10.5 8.27333 10.2733 8.5 10 8.5Z" fill="currentColor"/>
<path d="M3.9 10.7336C3.77333 10.7336 3.64667 10.6869 3.54667 10.5869L1.31333 8.35356C1.12 8.16022 1.12 7.84022 1.31333 7.64689L3.54667 5.41355C3.74 5.22022 4.06 5.22022 4.25333 5.41355C4.44667 5.60689 4.44667 5.92689 4.25333 6.12022L2.37333 8.00022L4.25333 9.88022C4.44667 10.0736 4.44667 10.3936 4.25333 10.5869C4.16 10.6869 4.02667 10.7336 3.9 10.7336Z" fill="currentColor"/>
</svg>
