<svg width="14" height="13" viewBox="0 0 14 13" fill="none" xmlns="http://www.w3.org/2000/svg">
<path d="M12.0667 4.43927C10.86 4.43927 10.3667 3.58593 10.9667 2.53927C11.3133 1.9326 11.1067 1.15927 10.5 0.812601L9.34667 0.152601C8.82 -0.160732 8.14 0.0259343 7.82667 0.552601L7.75333 0.679268C7.15333 1.72593 6.16667 1.72593 5.56 0.679268L5.48667 0.552601C5.18667 0.0259343 4.50667 -0.160732 3.98 0.152601L2.82667 0.812601C2.22 1.15927 2.01333 1.93927 2.36 2.54593C2.96667 3.58593 2.47333 4.43927 1.26667 4.43927C0.573333 4.43927 0 5.00593 0 5.70593V6.87927C0 7.5726 0.566667 8.14593 1.26667 8.14593C2.47333 8.14593 2.96667 8.99927 2.36 10.0459C2.01333 10.6526 2.22 11.4259 2.82667 11.7726L3.98 12.4326C4.50667 12.7459 5.18667 12.5593 5.5 12.0326L5.57333 11.9059C6.17333 10.8593 7.16 10.8593 7.76667 11.9059L7.84 12.0326C8.15333 12.5593 8.83333 12.7459 9.36 12.4326L10.5133 11.7726C11.12 11.4259 11.3267 10.6459 10.98 10.0459C10.3733 8.99927 10.8667 8.14593 12.0733 8.14593C12.7667 8.14593 13.34 7.57927 13.34 6.87927V5.70593C13.3333 5.0126 12.7667 4.43927 12.0667 4.43927ZM6.66667 8.45927C5.47333 8.45927 4.5 7.48593 4.5 6.2926C4.5 5.09927 5.47333 4.12593 6.66667 4.12593C7.86 4.12593 8.83333 5.09927 8.83333 6.2926C8.83333 7.48593 7.86 8.45927 6.66667 8.45927Z" fill="currentColor"/>
</svg>
