<svg width="25" height="24" viewBox="0 0 25 24" fill="none" xmlns="http://www.w3.org/2000/svg">
<path d="M20.6992 10.19H17.8092C15.4392 10.19 13.5092 8.26 13.5092 5.89V3C13.5092 2.45 13.0592 2 12.5092 2H8.26922C5.18922 2 2.69922 4 2.69922 7.57V16.43C2.69922 20 5.18922 22 8.26922 22H16.1292C19.2092 22 21.6992 20 21.6992 16.43V11.19C21.6992 10.64 21.2492 10.19 20.6992 10.19ZM12.4792 15.78L10.4792 17.78C10.4092 17.85 10.3192 17.91 10.2292 17.94C10.1392 17.98 10.0492 18 9.94922 18C9.84922 18 9.75922 17.98 9.66922 17.94C9.58922 17.91 9.50922 17.85 9.44922 17.79C9.43922 17.78 9.42922 17.78 9.42922 17.77L7.42922 15.77C7.13922 15.48 7.13922 15 7.42922 14.71C7.71922 14.42 8.19922 14.42 8.48922 14.71L9.19922 15.44V11.25C9.19922 10.84 9.53922 10.5 9.94922 10.5C10.3592 10.5 10.6992 10.84 10.6992 11.25V15.44L11.4192 14.72C11.7092 14.43 12.1892 14.43 12.4792 14.72C12.7692 15.01 12.7692 15.49 12.4792 15.78Z" fill="#DFE2E9"/>
<path d="M17.6289 8.80999C18.5789 8.81999 19.8989 8.81999 21.0289 8.81999C21.5989 8.81999 21.8989 8.14999 21.4989 7.74999C20.0589 6.29999 17.4789 3.68999 15.9989 2.20999C15.5889 1.79999 14.8789 2.07999 14.8789 2.64999V6.13999C14.8789 7.59999 16.1189 8.80999 17.6289 8.80999Z" fill="#DFE2E9"/>
</svg>
