<svg width="24" height="25" viewBox="0 0 24 25" fill="none" xmlns="http://www.w3.org/2000/svg">
<path d="M15.5 13.65H13.33C11.55 13.65 10.1 12.21 10.1 10.42V8.25C10.1 7.84 9.77 7.5 9.35 7.5H6.18C3.87 7.5 2 9 2 11.68V18.32C2 21 3.87 22.5 6.18 22.5H12.07C14.38 22.5 16.25 21 16.25 18.32V14.4C16.25 13.98 15.91 13.65 15.5 13.65Z" fill="#B6B9CA"/>
<path d="M17.8198 2.5H15.8498H14.7598H11.9298C9.66977 2.5 7.83977 3.94 7.75977 6.51C7.81977 6.51 7.86977 6.5 7.92977 6.5H10.7598H11.8498H13.8198C16.1298 6.5 17.9998 8 17.9998 10.68V12.65V15.36V17.33C17.9998 17.39 17.9898 17.44 17.9898 17.49C20.2198 17.42 21.9998 15.94 21.9998 13.33V11.36V8.65V6.68C21.9998 4 20.1298 2.5 17.8198 2.5Z" fill="#B6B9CA"/>
<path d="M11.9806 7.65024C11.6706 7.34024 11.1406 7.55024 11.1406 7.98024V10.6002C11.1406 11.7002 12.0706 12.6002 13.2106 12.6002C13.9206 12.6102 14.9106 12.6102 15.7606 12.6102C16.1906 12.6102 16.4106 12.1102 16.1106 11.8102C15.0206 10.7202 13.0806 8.77024 11.9806 7.65024Z" fill="#B6B9CA"/>
</svg>
