<svg width="17" height="17" viewBox="0 0 17 17" fill="none" xmlns="http://www.w3.org/2000/svg">
<g clip-path="url(#clip0_967_106)">
<path d="M10.375 13.0693H4.8893C4.60816 13.0693 4.37501 12.8362 4.37501 12.555C4.37501 12.2739 4.60816 12.0407 4.8893 12.0407H10.375C11.9796 12.0407 13.2893 10.731 13.2893 9.12645C13.2893 7.52188 11.9796 6.21217 10.375 6.21217H2.83216C2.55101 6.21217 2.31787 5.97902 2.31787 5.69788C2.31787 5.41674 2.55101 5.18359 2.83216 5.18359H10.375C12.5487 5.18359 14.3179 6.95274 14.3179 9.12645C14.3179 11.3002 12.5487 13.0693 10.375 13.0693Z" fill="#9FA3B7"/>
<path d="M4.40911 7.92639C4.27883 7.92639 4.14854 7.87839 4.04569 7.77553L2.29026 6.0201C2.0914 5.82124 2.0914 5.4921 2.29026 5.29324L4.04569 3.53781C4.24454 3.33896 4.57369 3.33896 4.77254 3.53781C4.9714 3.73667 4.9714 4.06581 4.77254 4.26467L3.38054 5.65667L4.77254 7.04867C4.9714 7.24753 4.9714 7.57667 4.77254 7.77553C4.67654 7.87839 4.5394 7.92639 4.40911 7.92639Z" fill="#9FA3B7"/>
</g>
<defs>
<clipPath id="clip0_967_106">
<rect width="16.4571" height="16.4571" fill="white"/>
</clipPath>
</defs>
</svg>
