<svg width="24" height="24" viewBox="0 0 24 24" fill="none" xmlns="http://www.w3.org/2000/svg">
<path d="M22 7.81V16.19C22 19.83 19.83 22 16.19 22H9.75V2H16.19C19.83 2 22 4.17 22 7.81Z" fill="#B6B9CA"/>
<path d="M8.25 2V22H7.81C4.17 22 2 19.83 2 16.19V7.81C2 4.17 4.17 2 7.81 2H8.25Z" fill="#B6B9CA"/>
<path d="M15.3897 9.6438L17.3554 11.6096C17.6453 11.8995 17.6453 12.3803 17.3554 12.6702L15.3897 14.636C15.0997 14.9259 14.6189 14.9259 14.329 14.636C14.0391 14.3461 14.0391 13.8652 14.329 13.5753L15.7644 12.1399L14.329 10.7045C14.0391 10.4146 14.0391 9.93372 14.329 9.6438C14.6189 9.35389 15.0997 9.35389 15.3897 9.6438Z" fill="#F1F4F7"/>
</svg>
