<svg width="24" height="24" viewBox="0 0 24 24" fill="none" xmlns="http://www.w3.org/2000/svg">
<path d="M22 7.81V16.19C22 19.83 19.83 22 16.19 22H9.75V2H16.19C19.83 2 22 4.17 22 7.81Z" fill="#B6B9CA"/>
<path d="M8.25 2V22H7.81C4.17 22 2 19.83 2 16.19V7.81C2 4.17 4.17 2 7.81 2H8.25Z" fill="#B6B9CA"/>
<path d="M14.3291 9.6438L12.3633 11.6096C12.0734 11.8995 12.0734 12.3803 12.3633 12.6702L14.3291 14.636C14.619 14.9259 15.0998 14.9259 15.3898 14.636C15.6797 14.3461 15.6797 13.8652 15.3898 13.5753L13.9543 12.1399L15.3898 10.7045C15.6797 10.4146 15.6797 9.93372 15.3898 9.6438C15.0998 9.35389 14.619 9.35389 14.3291 9.6438Z" fill="#F1F4F7"/>
</svg>
