<svg width="17" height="14" viewBox="0 0 17 14" fill="none" xmlns="http://www.w3.org/2000/svg">
<path d="M15.2927 13.2745H1.70732C1.31916 13.2745 1 12.9553 1 12.5672C1 12.179 1.31916 11.8599 1.70732 11.8599H15.2927C15.6808 11.8599 16 12.179 16 12.5672C16 12.964 15.6808 13.2745 15.2927 13.2745Z" fill="#575E83" stroke="#575E83"/>
<path d="M15.2927 7.84896H1.70732C1.31916 7.84896 1 7.52981 1 7.14164C1 6.75348 1.31916 6.43433 1.70732 6.43433H15.2927C15.6808 6.43433 16 6.75348 16 7.14164C16 7.52981 15.6808 7.84896 15.2927 7.84896Z" fill="#575E83" stroke="#575E83"/>
<path d="M15.2927 2.41463H1.70732C1.31916 2.41463 1 2.09548 1 1.70732C1 1.31916 1.31916 1 1.70732 1H15.2927C15.6808 1 16 1.31916 16 1.70732C16 2.09548 15.6808 2.41463 15.2927 2.41463Z" fill="#575E83" stroke="#575E83"/>
</svg>
