<svg width="20" height="20" viewBox="0 0 20 20" fill="none" xmlns="http://www.w3.org/2000/svg">
<path d="M18.3333 17.708C18.3333 18.0497 18.05 18.333 17.7083 18.333H2.29163C1.94996 18.333 1.66663 18.0497 1.66663 17.708C1.66663 17.3663 1.94996 17.083 2.29163 17.083H17.7083C18.05 17.083 18.3333 17.3663 18.3333 17.708Z" fill="white"/>
<path d="M12.8249 3.76647L3.87491 12.7165C3.53324 13.0581 2.98324 13.0581 2.64991 12.7165H2.64158C1.48324 11.5498 1.48324 9.66647 2.64158 8.50814L8.59991 2.5498C9.76658 1.38314 11.6499 1.38314 12.8166 2.5498C13.1582 2.8748 13.1582 3.43314 12.8249 3.76647Z" fill="white"/>
<path d="M17.35 7.07526L14.8083 4.53359C14.4667 4.19193 13.9167 4.19193 13.5833 4.53359L4.63333 13.4836C4.29166 13.8169 4.29166 14.3669 4.63333 14.7086L7.17499 17.2586C8.34166 18.4169 10.225 18.4169 11.3917 17.2586L17.3417 11.3003C18.525 10.1336 18.525 8.24193 17.35 7.07526ZM10.6333 14.6003L9.62499 15.6169C9.41666 15.8253 9.07499 15.8253 8.85833 15.6169C8.64999 15.4086 8.64999 15.0669 8.85833 14.8503L9.87499 13.8336C10.075 13.6336 10.425 13.6336 10.6333 13.8336C10.8417 14.0419 10.8417 14.4003 10.6333 14.6003ZM13.9417 11.2919L11.9083 13.3336C11.7 13.5336 11.3583 13.5336 11.1417 13.3336C10.9333 13.1253 10.9333 12.7836 11.1417 12.5669L13.1833 10.5253C13.3833 10.3253 13.7333 10.3253 13.9417 10.5253C14.15 10.7419 14.15 11.0836 13.9417 11.2919Z" fill="white"/>
</svg>
