<svg width="20" height="20" viewBox="0 0 20 20" fill="none" xmlns="http://www.w3.org/2000/svg">
<path d="M16.0333 4.65046H15.7L12.8833 1.83379C12.6583 1.60879 12.2916 1.60879 12.0583 1.83379C11.8333 2.05879 11.8333 2.42546 12.0583 2.65879L14.05 4.65046H5.94996L7.94163 2.65879C8.16663 2.43379 8.16663 2.06712 7.94163 1.83379C7.71663 1.60879 7.34996 1.60879 7.11663 1.83379L4.30829 4.65046H3.97496C3.22496 4.65046 1.66663 4.65046 1.66663 6.78379C1.66663 7.59212 1.83329 8.12545 2.18329 8.47545C2.38329 8.68379 2.62496 8.79212 2.88329 8.85045C3.12496 8.90879 3.38329 8.91712 3.63329 8.91712H16.3666C16.625 8.91712 16.8666 8.90045 17.1 8.85045C17.8 8.68379 18.3333 8.18379 18.3333 6.78379C18.3333 4.65046 16.775 4.65046 16.0333 4.65046Z" fill="#2A2F4C"/>
<path d="M15.8752 10H4.0585C3.54184 10 3.15017 10.4583 3.2335 10.9667L3.9335 15.25C4.16684 16.6833 4.79184 18.3333 7.56684 18.3333H12.2418C15.0502 18.3333 15.5502 16.925 15.8502 15.35L16.6918 10.9917C16.7918 10.475 16.4002 10 15.8752 10ZM8.84184 15.375C8.84184 15.7 8.5835 15.9583 8.26684 15.9583C7.94184 15.9583 7.6835 15.7 7.6835 15.375V12.625C7.6835 12.3083 7.94184 12.0417 8.26684 12.0417C8.5835 12.0417 8.84184 12.3083 8.84184 12.625V15.375ZM12.4085 15.375C12.4085 15.7 12.1502 15.9583 11.8252 15.9583C11.5085 15.9583 11.2418 15.7 11.2418 15.375V12.625C11.2418 12.3083 11.5085 12.0417 11.8252 12.0417C12.1502 12.0417 12.4085 12.3083 12.4085 12.625V15.375Z" fill="#2A2F4C"/>
</svg>
