<svg width="20" height="20" viewBox="0 0 20 20" fill="none" xmlns="http://www.w3.org/2000/svg">
<path d="M10 11.667C5.82505 11.667 2.42505 14.467 2.42505 17.917C2.42505 18.1503 2.60838 18.3337 2.84172 18.3337H17.1584C17.3917 18.3337 17.575 18.1503 17.575 17.917C17.575 14.467 14.175 11.667 10 11.667Z" fill="white"/>
<path d="M10 1.66699C9.01671 1.66699 8.11671 2.00866 7.40004 2.58366C6.44171 3.34199 5.83337 4.51699 5.83337 5.83366C5.83337 6.61699 6.05004 7.35033 6.44171 7.97533C7.15837 9.18366 8.47504 10.0003 10 10.0003C11.05 10.0003 12.0084 9.61699 12.7417 8.95866C13.0667 8.68366 13.35 8.35033 13.5667 7.97533C13.95 7.35033 14.1667 6.61699 14.1667 5.83366C14.1667 3.53366 12.3 1.66699 10 1.66699ZM12.1584 5.38366L9.93337 7.43366C9.78337 7.57533 9.59171 7.64199 9.40004 7.64199C9.20004 7.64199 9.00004 7.56699 8.85004 7.41699L7.82504 6.38366C7.51671 6.07533 7.51671 5.58366 7.82504 5.27533C8.13337 4.96699 8.62504 4.96699 8.93337 5.27533L9.42504 5.76699L11.1 4.22533C11.4167 3.93366 11.9084 3.95033 12.2 4.26699C12.4917 4.59199 12.475 5.09199 12.1584 5.38366Z" fill="white"/>
</svg>
