<svg width="32" height="32" viewBox="0 0 32 32" fill="none" xmlns="http://www.w3.org/2000/svg">
<rect width="32" height="32" rx="8" fill="#99FF4B"/>
<path d="M14.3583 18.8923C14.3581 18.8923 14.358 18.8924 14.358 18.8925C14.1935 20.3918 12.0493 20.8021 10.9579 19.945C10.5361 19.6139 9.07671 17.9979 8.86064 17.5487C8.51452 16.8279 8.54147 16.0653 8.90215 15.3578C9.90587 13.388 11.4902 11.4645 12.5435 9.49352C13.2678 8.41732 15.0136 8.3303 15.9135 9.23318C15.9745 9.29435 16.0249 9.36492 16.0708 9.43805L18.4346 13.2006C18.6539 13.5496 19.1931 13.3943 19.1931 12.9822C19.1931 12.8111 19.4332 12.3982 19.5564 12.2585C20.2593 11.4583 21.735 11.3947 22.5697 12.0353C22.9685 12.3415 24.3705 13.9001 24.6062 14.325C24.8425 14.7504 24.9475 15.1955 24.9188 15.6457C24.8857 16.1635 24.6018 16.6217 24.3291 17.0631C23.2254 18.8495 22.1979 20.7599 21.0076 22.464C20.1648 23.6708 18.2921 23.6981 17.421 22.5053C16.3411 21.0266 15.5119 19.2271 14.4513 17.728C14.4057 17.6643 14.3533 17.6939 14.3513 17.7723C14.3421 18.1399 14.3967 18.5411 14.3585 18.8921C14.3585 18.8922 14.3584 18.8923 14.3583 18.8923ZM19.1827 14.8716C19.1829 14.8715 19.183 14.8711 19.1827 14.871C18.2467 14.3219 17.194 12.9123 16.0497 12.8772C15.5533 12.8617 15.0083 13.0511 14.6684 13.4084C14.3847 13.7067 14.3677 14.1508 14.3672 14.5624L14.3672 14.6206C14.3655 16.1842 15.0293 17.7603 16.3052 18.6642C17.1727 19.2779 18.3602 19.2787 18.9333 18.488C19.1569 18.1796 19.1808 17.7794 19.181 17.3984L19.1824 14.872C19.1824 14.8718 19.1825 14.8717 19.1827 14.8716Z" fill="#2A2F4C"/>
</svg>
