<svg width="76" height="10" viewBox="0 0 76 10" fill="none" xmlns="http://www.w3.org/2000/svg">
<path d="M14.4743 10.0001H12.7568C6.51503 8.46444 7.54983 -0.438483 14.2653 0.0596718C18.874 0.40171 20.2752 6.51866 16.5224 9.12297L14.4743 10.0001ZM13.5826 2.51638C9.77831 2.65121 10.9677 8.64894 14.616 7.23112C17.042 6.28874 16.239 2.4213 13.5826 2.51638Z" fill="#9FA3B7"/>
<path d="M6.03287 9.9998H4.17222C1.99384 9.43068 0.596933 8.04266 0.0229969 5.88399C0.0745223 5.34326 -0.0485662 4.70318 0.0229969 4.18089C0.581189 0.0679229 6.23753 -1.48473 8.89109 1.69722C8.32002 2.14144 7.6645 3.30238 6.85584 3.1633C5.89117 2.99866 5.62352 2.15137 4.17079 2.68927C0.473844 4.06026 4.06917 9.78266 7.10488 6.45595L8.89109 8.22432C8.11964 9.16103 7.17787 9.64925 6.03143 9.99838L6.03287 9.9998Z" fill="#9FA3B7"/>
<path d="M33.2182 2.90384L33.4329 3.75539H39.3712V6.31003H33.2182C33.0579 6.61659 33.6604 7.16158 33.8622 7.16158H39.3712V9.71622H33.2897C33.2353 9.71622 32.4152 9.3685 32.2836 9.29612C31.4649 8.84196 30.7779 7.86126 30.6548 6.93734C30.5174 5.89845 30.4873 2.13177 30.6505 1.1383C30.7335 0.634468 31.223 0.207275 31.7153 0.207275H39.155L39.3697 0.420162V2.69095L39.155 2.90384H33.2167H33.2182Z" fill="#9FA3B7"/>
<path d="M42.5184 2.90384L47.482 4.57997C49.3427 5.2016 49.6776 7.72785 48.3121 9.00517C48.1146 9.18968 47.077 9.71622 46.8823 9.71622H40.5146V7.16158H46.8108C46.8437 6.95578 46.5703 6.97424 46.4172 6.91463C44.1758 6.03328 38.5896 5.50532 40.2012 1.81244C40.5161 1.09005 41.6582 0.207275 42.4454 0.207275H48.4553L48.67 0.420162V2.69095L48.4553 2.90384H42.517H42.5184Z" fill="#9FA3B7"/>
<path d="M69.5422 0.368896L73.2821 9.85655L71.2769 9.78985L70.3508 7.58718C70.2478 7.42822 70.086 7.45803 69.9286 7.43816C69.5178 7.38706 66.7698 7.37997 66.5093 7.46938C66.0914 7.6113 65.8166 9.3953 65.4158 9.79126L63.4106 9.85797L67.1963 0.486694L69.5422 0.368896ZM69.5608 5.88408C69.3447 4.74869 68.7507 3.69703 68.3442 2.6184C68.0064 3.72541 67.3094 4.73449 67.1276 5.88408H69.5593H69.5608Z" fill="#9FA3B7"/>
<path d="M29.7848 9.71627H27.2099V3.61352C25.4509 5.0796 24.8927 7.3291 22.9219 4.3941C23.649 3.80511 26.0392 0.479824 26.7119 0.352092C27.0453 0.288226 29.1221 0.305257 29.3568 0.418796C29.457 0.467051 29.7848 0.925467 29.7848 0.987914V9.71627Z" fill="#9FA3B7"/>
<path d="M22.0573 3.61345V9.7162H19.4824V1.12977C19.4824 1.07868 19.8173 0.616004 19.9004 0.550719C20.3025 0.232808 22.6627 0.224293 23.0706 0.550719C23.2109 0.662839 24.4646 2.1573 24.4546 2.26801L22.8244 4.02929L22.0573 3.61345Z" fill="#9FA3B7"/>
<path d="M57.2564 1.05884V4.03925H60.1175V6.0262H57.2564V8.86469H55.3958V6.0262H52.5347V4.03925H55.3958V1.05884H57.2564Z" fill="#9FA3B7"/>
<path d="M75.9998 0.349121H74.1392V9.85806H75.9998V0.349121Z" fill="#9FA3B7"/>
</svg>
