<svg width="35" height="32" viewBox="0 0 35 32" fill="none" xmlns="http://www.w3.org/2000/svg">
<path d="M12.3243 22.2664C11.9717 25.5152 7.36941 26.4044 5.02694 24.5472C4.12154 23.8299 0.989376 20.3286 0.525657 19.3553C-0.217212 17.7935 -0.159362 16.1414 0.614727 14.6083C2.76895 10.3405 6.16925 6.17294 8.43 1.90242C10.0369 -0.508207 13.9873 -0.628201 15.8523 1.54423L22.7015 12.5505V9.46113C22.7015 9.09041 23.2167 8.19582 23.4811 7.89315C24.9898 6.15951 28.1569 6.02161 29.9484 7.4096C30.8042 8.07314 33.8133 11.45 34.3193 12.3705C35.1099 13.8078 35.2155 15.348 34.6168 16.873C31.8988 21.1373 29.4681 25.8537 26.5958 30.0051C24.7869 32.6199 20.7677 32.679 18.8981 30.0947C16.5804 26.8907 14.8009 22.9918 12.5245 19.7439C12.4712 19.6687 12.4455 19.5415 12.3252 19.5352C12.2564 20.4101 12.418 21.4077 12.3252 22.2664H12.3243ZM22.6804 13.5544C20.6713 12.3652 18.4114 9.3098 15.9551 9.23368C14.4437 9.18622 12.7228 10.0316 12.3454 11.5422L12.3381 18.4016C13.7504 19.4457 15.0846 20.7576 16.5033 21.7721C18.7062 23.3455 21.8705 23.0598 22.6749 20.274L22.6786 13.5553L22.6804 13.5544Z" fill="white"/>
</svg>
