<svg width="973" height="830" viewBox="0 0 973 830" fill="none" xmlns="http://www.w3.org/2000/svg">
<path d="M342.616 613.023C332.814 702.466 204.87 726.947 139.749 675.816C114.579 656.068 27.5046 559.673 14.6133 532.874C-6.03849 489.878 -4.43026 444.393 17.0894 402.186C76.9769 284.687 171.505 169.949 234.354 52.3759C279.027 -13.9916 388.846 -17.2951 440.693 42.5145L631.102 345.532V260.477C631.102 250.27 645.423 225.641 652.775 217.308C694.717 169.579 782.761 165.782 832.565 203.995C856.357 222.264 940.011 315.232 954.076 340.576C976.055 380.145 978.991 422.549 962.347 464.535C886.786 581.935 819.214 711.785 739.365 826.079C689.075 898.068 577.341 899.695 525.367 828.545C460.936 740.334 411.464 632.992 348.181 543.574C346.701 541.503 345.986 538.002 342.642 537.83C340.727 561.916 345.22 589.38 342.642 613.023H342.616ZM630.515 373.168C574.661 340.428 511.838 256.31 443.552 254.215C401.534 252.908 353.695 276.181 343.203 317.772L342.999 506.618C382.26 535.364 419.352 571.482 458.792 599.414C520.032 642.731 608 634.866 630.362 558.169L630.464 373.193L630.515 373.168Z" fill="url(#paint0_linear_128_17399)"/>
<defs>
<linearGradient id="paint0_linear_128_17399" x1="103.876" y1="138.461" x2="933.689" y2="992.966" gradientUnits="userSpaceOnUse">
<stop stop-color="#016DFF"/>
<stop offset="1" stop-color="#99FF4B"/>
</linearGradient>
</defs>
</svg>
