<svg width="76" height="10" viewBox="0 0 76 10" fill="none" xmlns="http://www.w3.org/2000/svg">
<path d="M14.4745 10.0006H12.757C6.51523 8.46493 7.55003 -0.437995 14.2655 0.0601601C18.8742 0.402198 20.2754 6.51914 16.5226 9.12346L14.4745 10.0006ZM13.5828 2.51687C9.77851 2.6517 10.9679 8.64943 14.6162 7.23161C17.0422 6.28923 16.2392 2.42178 13.5828 2.51687Z" fill="white"/>
<path d="M6.03287 10.0003H4.17222C1.99384 9.43117 0.596933 8.04315 0.0229969 5.88448C0.0745223 5.34374 -0.0485662 4.70367 0.0229969 4.18138C0.581189 0.0684112 6.23753 -1.48424 8.89109 1.6977C8.32002 2.14193 7.6645 3.30287 6.85584 3.16378C5.89117 2.99915 5.62352 2.15186 4.17079 2.68976C0.473844 4.06075 4.06917 9.78314 7.10488 6.45643L8.89109 8.22481C8.11964 9.16151 7.17787 9.64973 6.03143 9.99887L6.03287 10.0003Z" fill="white"/>
<path d="M33.2183 2.90408L33.433 3.75563H39.3713V6.31027H33.2183C33.058 6.61683 33.6605 7.16182 33.8623 7.16182H39.3713V9.71646H33.2898C33.2354 9.71646 32.4153 9.36874 32.2837 9.29636C31.465 8.84221 30.778 7.86151 30.6549 6.93758C30.5175 5.89869 30.4874 2.13202 30.6506 1.13854C30.7336 0.634712 31.2231 0.20752 31.7154 0.20752H39.1551L39.3698 0.420406V2.6912L39.1551 2.90408H33.2168H33.2183Z" fill="white"/>
<path d="M42.5186 2.90408L47.4822 4.58021C49.3429 5.20184 49.6778 7.7281 48.3124 9.00542C48.1148 9.18992 47.0772 9.71646 46.8825 9.71646H40.5148V7.16182H46.811C46.8439 6.95603 46.5705 6.97448 46.4174 6.91487C44.176 6.03352 38.5898 5.50556 40.2014 1.81269C40.5163 1.09029 41.6584 0.20752 42.4456 0.20752H48.4555L48.6702 0.420406V2.6912L48.4555 2.90408H42.5172H42.5186Z" fill="white"/>
<path d="M69.5423 0.369629L73.2821 9.85728L71.2769 9.79058L70.3509 7.58791C70.2479 7.42895 70.0861 7.45876 69.9287 7.43889C69.5179 7.3878 66.7699 7.3807 66.5094 7.47011C66.0915 7.61204 65.8167 9.39603 65.4159 9.792L63.4107 9.8587L67.1964 0.487426L69.5423 0.369629ZM69.5609 5.88482C69.3447 4.74942 68.7508 3.69776 68.3443 2.61913C68.0065 3.72614 67.3095 4.73523 67.1277 5.88482H69.5594H69.5609Z" fill="white"/>
<path d="M29.7847 9.71651H27.2098V3.61376C25.4508 5.07984 24.8926 7.32934 22.9218 4.39435C23.6489 3.80536 26.0391 0.480068 26.7118 0.352336C27.0453 0.28847 29.122 0.305501 29.3567 0.41904C29.4569 0.467295 29.7847 0.925711 29.7847 0.988158V9.71651Z" fill="white"/>
<path d="M22.0573 3.61394V9.71669H19.4825V1.13026C19.4825 1.07917 19.8174 0.616493 19.9004 0.551207C20.3026 0.233296 22.6627 0.224781 23.0706 0.551207C23.2109 0.663328 24.4647 2.15779 24.4547 2.26849L22.8244 4.02978L22.0573 3.61394Z" fill="white"/>
<path d="M57.2563 1.05908V4.0395H60.1174V6.02644H57.2563V8.86493H55.3957V6.02644H52.5346V4.0395H55.3957V1.05908H57.2563Z" fill="white"/>
<path d="M76.0001 0.349609H74.1395V9.85855H76.0001V0.349609Z" fill="white"/>
</svg>
