<svg width="24" height="24" viewBox="0 0 24 24" fill="none" xmlns="http://www.w3.org/2000/svg">
<path d="M15.2602 21.6C15.2002 21.6 15.1302 21.5904 15.0702 21.5712C13.0602 21.024 10.9502 21.024 8.94015 21.5712C8.57015 21.6672 8.18015 21.4656 8.08015 21.1104C7.97015 20.7552 8.19015 20.3808 8.56015 20.2848C10.8202 19.6704 13.2002 19.6704 15.4602 20.2848C15.8302 20.3904 16.0502 20.7552 15.9402 21.1104C15.8402 21.408 15.5602 21.6 15.2602 21.6Z" fill="#9FA3B7"/>
<path d="M19.2102 6.58561C18.1702 4.56961 16.1602 3.08161 13.8302 2.59201C11.3902 2.07361 8.89021 2.63041 6.98021 4.10881C5.06021 5.57761 3.97021 7.77601 3.97021 10.128C3.97021 12.6144 5.52022 15.216 7.86021 16.7232V17.52C7.85021 17.7888 7.84021 18.2016 8.18021 18.5376C8.53021 18.8832 9.05021 18.9216 9.46021 18.9216H14.5902C15.1302 18.9216 15.5402 18.7776 15.8202 18.5088C16.2002 18.1344 16.1902 17.6544 16.1802 17.3952V16.7232C19.2802 14.7168 21.2302 10.4832 19.2102 6.58561ZM13.7202 11.6352L12.6502 13.4208C12.5102 13.6512 12.2602 13.7856 12.0002 13.7856C11.8702 13.7856 11.7402 13.7568 11.6302 13.6896C11.2702 13.488 11.1502 13.0464 11.3502 12.7104L12.2002 11.2896H11.3602C10.8602 11.2896 10.4502 11.0784 10.2302 10.7232C10.0102 10.3584 10.0302 9.91681 10.2802 9.49441L11.3502 7.70881C11.5602 7.36321 12.0202 7.24801 12.3702 7.44001C12.7302 7.64161 12.8502 8.08321 12.6502 8.41921L11.8002 9.84001H12.6402C13.1402 9.84001 13.5502 10.0512 13.7702 10.4064C13.9902 10.7712 13.9702 11.2224 13.7202 11.6352Z" fill="#9FA3B7"/>
</svg>