<svg width="24" height="24" viewBox="0 0 24 24" fill="none" xmlns="http://www.w3.org/2000/svg">
<path d="M16 4.5599C16 5.7503 14.99 6.7199 13.75 6.7199H10.25C9.63 6.7199 9.07 6.4799 8.66 6.0863C8.25 5.6927 8 5.1551 8 4.5599C8 3.3695 9.01 2.3999 10.25 2.3999H13.75C14.37 2.3999 14.93 2.6399 15.34 3.0335C15.75 3.4271 16 3.9647 16 4.5599Z" fill="#9FA3B7"/>
<path d="M18.83 5.30894C18.6 5.12654 18.34 4.98254 18.06 4.87694C17.77 4.77134 17.48 4.99214 17.42 5.28014C17.08 6.92174 15.57 8.16014 13.75 8.16014H10.25C9.25 8.16014 8.31 7.78574 7.6 7.10414C7.08 6.60494 6.72 5.97134 6.58 5.28974C6.52 5.00174 6.22 4.77134 5.93 4.88654C4.77 5.33774 4 6.35534 4 8.40014V17.7601C4 20.6401 5.79 21.6001 8 21.6001H16C18.21 21.6001 20 20.6401 20 17.7601V8.40014C20 6.83534 19.55 5.87534 18.83 5.30894ZM8 12.2401H12C12.41 12.2401 12.75 12.5665 12.75 12.9601C12.75 13.3537 12.41 13.6801 12 13.6801H8C7.59 13.6801 7.25 13.3537 7.25 12.9601C7.25 12.5665 7.59 12.2401 8 12.2401ZM16 17.5201H8C7.59 17.5201 7.25 17.1937 7.25 16.8001C7.25 16.4065 7.59 16.0801 8 16.0801H16C16.41 16.0801 16.75 16.4065 16.75 16.8001C16.75 17.1937 16.41 17.5201 16 17.5201Z" fill="#9FA3B7"/>
</svg>
