<svg width="56" height="56" viewBox="0 0 56 56" fill="none" xmlns="http://www.w3.org/2000/svg">
<g clip-path="url(#clip0_1_1830)">
<circle cx="28" cy="28" r="28" fill="#2A2F4C"/>
<g clip-path="url(#clip1_1_1830)">
<path d="M36.7564 17.2933C37.8641 17.2933 38.76 18.1892 38.76 19.2969V24.4489H38.0444C36.0695 24.4489 34.4667 26.0517 34.4667 28.0267C34.4667 30.0016 36.0695 31.6044 38.0444 31.6044H38.76V36.7564C38.76 37.8641 37.8641 38.76 36.7564 38.76H31.6044V38.0444C31.6044 36.0695 30.0016 34.4667 28.0267 34.4667C26.0517 34.4667 24.4489 36.0695 24.4489 38.0444V38.76H19.2969C18.1892 38.76 17.2933 37.8641 17.2933 36.7564V31.6044H16.5778C14.6028 31.6044 13 30.0016 13 28.0267C13 26.0517 14.6028 24.4489 16.5778 24.4489H17.2933V19.2969C17.2933 18.1892 18.1892 17.2933 19.2969 17.2933H24.4489V16.5778C24.4489 14.6028 26.0517 13 28.0267 13C30.0016 13 31.6044 14.6028 31.6044 16.5778V17.2933H36.7564Z" fill="white"/>
<path d="M29.3292 23.4407C30.0474 23.4407 30.6296 22.8585 30.6296 22.1403C30.6296 21.4221 30.0474 20.8398 29.3292 20.8398C28.611 20.8398 28.0288 21.4221 28.0288 22.1403C28.0288 22.8585 28.611 23.4407 29.3292 23.4407Z" fill="#2A2F4C" stroke="#2A2F4C" stroke-miterlimit="10" stroke-linecap="round" stroke-linejoin="round"/>
<path d="M23.2604 23.4407C23.9786 23.4407 24.5608 22.8585 24.5608 22.1403C24.5608 21.4221 23.9786 20.8398 23.2604 20.8398C22.5422 20.8398 21.96 21.4221 21.96 22.1403C21.96 22.8585 22.5422 23.4407 23.2604 23.4407Z" fill="#2A2F4C" stroke="#2A2F4C" stroke-miterlimit="10" stroke-linecap="round" stroke-linejoin="round"/>
<path d="M23.1738 26.5183H29.4158C29.8493 26.5183 30.1961 26.8651 30.1961 27.2986C30.1961 29.4573 28.4535 31.1998 26.2948 31.1998C24.1361 31.1998 22.3936 29.4573 22.3936 27.2986C22.3936 26.8651 22.7403 26.5183 23.1738 26.5183Z" fill="#2A2F4C" stroke="#2A2F4C" stroke-miterlimit="10" stroke-linecap="round" stroke-linejoin="round"/>
</g>
<path d="M41 16.5C41 17.8807 39.8807 19 38.5 19C37.1193 19 36 17.8807 36 16.5C36 15.1193 37.1193 14 38.5 14C39.8807 14 41 15.1193 41 16.5Z" fill="#99FF4B"/>
<path d="M41 16.5C41 15.1193 39.8807 14 38.5 14C37.1193 14 36 15.1193 36 16.5C36 17.8807 37.1193 19 38.5 19C39.8807 19 41 17.8807 41 16.5ZM43 16.5C43 18.9853 40.9853 21 38.5 21C36.0147 21 34 18.9853 34 16.5C34 14.0147 36.0147 12 38.5 12C40.9853 12 43 14.0147 43 16.5Z" fill="#2A2F4C"/>
</g>
<defs>
<clipPath id="clip0_1_1830">
<rect width="56" height="56" fill="white"/>
</clipPath>
<clipPath id="clip1_1_1830">
<rect width="25.76" height="25.76" fill="white" transform="translate(13 13)"/>
</clipPath>
</defs>
</svg>
