<svg width="24" height="24" viewBox="0 0 24 24" fill="none" xmlns="http://www.w3.org/2000/svg">
<path d="M21.2559 19.5203C21.6766 19.5206 22.041 19.8397 22.041 20.2449C22.0408 20.6499 21.6765 20.9691 21.2559 20.9695H4.80664C4.38575 20.9695 4.0217 20.6501 4.02148 20.2449C4.02148 19.8395 4.38562 19.5203 4.80664 19.5203H21.2559ZM16.5508 3.00171C17.5539 2.97591 18.5617 3.40468 19.5654 4.26929C20.568 5.13303 21.1003 6.03039 21.1289 6.95483C21.1573 7.87923 20.6816 8.8032 19.7344 9.71753L12.2314 16.9578C11.8819 17.2991 11.2783 17.6179 10.7461 17.7498L10.5234 17.7937L7.58105 18.2527L7.57129 18.2537C7.42543 18.2615 7.27578 18.2781 7.12695 18.2781C6.54967 18.278 6.00405 18.0968 5.6084 17.7537V17.7546C5.10615 17.323 4.86723 16.6716 4.95312 15.9744L5.29199 13.2742C5.32581 13.0058 5.43098 12.698 5.57617 12.4128C5.72137 12.1279 5.91034 11.857 6.11719 11.6638L13.6191 4.42358C14.5676 3.50807 15.5475 3.02763 16.5508 3.00171ZM7.25098 12.6589C7.1713 12.7354 7.07863 12.8724 7.00098 13.0242C6.92342 13.1758 6.86751 13.3299 6.85156 13.4353L6.51367 16.1326V16.1335C6.48053 16.3839 6.5481 16.5721 6.68066 16.6863C6.81487 16.8017 7.0278 16.8522 7.3125 16.8132L10.2549 16.3542C10.3731 16.3357 10.5389 16.2761 10.7002 16.197C10.8617 16.1178 11.0072 16.0251 11.0879 15.948L16.377 10.8416C14.6434 10.2943 13.2468 9.0888 12.5566 7.53198L7.25098 12.6589ZM16.6221 4.43726C16.0419 4.43735 15.519 4.72522 14.9844 5.19604L14.7539 5.40894L13.793 6.33667C14.2297 8.02988 15.7279 9.33609 17.6162 9.64624L18.5898 8.70679C19.1541 8.159 19.5146 7.65229 19.5498 7.12378C19.5843 6.60188 19.3029 6.02131 18.4854 5.32104L18.4844 5.32007C17.7635 4.68731 17.1552 4.43735 16.6221 4.43726Z" fill="#9FA3B7"/>
</svg>
