<svg width="36" height="36" viewBox="0 0 36 36" fill="none" xmlns="http://www.w3.org/2000/svg">
<g clip-path="url(#clip0_1_1786)">
<path d="M25.2927 24.2745H11.7073C11.3192 24.2745 11 23.9553 11 23.5672C11 23.179 11.3192 22.8599 11.7073 22.8599H25.2927C25.6808 22.8599 26 23.179 26 23.5672C26 23.964 25.6808 24.2745 25.2927 24.2745Z" fill="#9FA3B7" stroke="#9FA3B7"/>
<path d="M25.2927 18.849H11.7073C11.3192 18.849 11 18.5298 11 18.1416C11 17.7535 11.3192 17.4343 11.7073 17.4343H25.2927C25.6808 17.4343 26 17.7535 26 18.1416C26 18.5298 25.6808 18.849 25.2927 18.849Z" fill="#9FA3B7" stroke="#9FA3B7"/>
<path d="M25.2927 13.4146H11.7073C11.3192 13.4146 11 13.0955 11 12.7073C11 12.3192 11.3192 12 11.7073 12H25.2927C25.6808 12 26 12.3192 26 12.7073C26 13.0955 25.6808 13.4146 25.2927 13.4146Z" fill="#9FA3B7" stroke="#9FA3B7"/>
</g>
<defs>
<clipPath id="clip0_1_1786">
<rect width="36" height="36" fill="white"/>
</clipPath>
</defs>
</svg>
