<svg width="24" height="24" viewBox="0 0 24 24" fill="none" xmlns="http://www.w3.org/2000/svg">
<path d="M15.3303 22.75C14.9103 22.75 14.4803 22.6 14.1503 22.3L12.1503 20.47C12.0703 20.4 11.9103 20.4 11.8203 20.47L9.83027 22.3C9.17027 22.91 8.14022 22.9 7.48022 22.3L5.48022 20.47C5.40022 20.4 5.24027 20.4 5.15027 20.47L4.16022 21.38C3.25022 22.21 2.53024 22.08 2.18024 21.92C1.83024 21.76 1.24023 21.32 1.24023 20.07V12.18C1.24023 6.14999 6.06024 1.25 11.9902 1.25C17.9202 1.25 22.7402 6.14999 22.7402 12.18V20.07C22.7402 21.32 22.1502 21.77 21.8002 21.92C21.4502 22.07 20.7303 22.21 19.8203 21.38L18.8203 20.47C18.7403 20.4 18.5802 20.4 18.5002 20.47L16.5002 22.3C16.1802 22.6 15.7603 22.75 15.3303 22.75Z" fill="#DFE2E9"/>
<path d="M12.0003 16.0703C10.4303 16.0703 8.86025 15.5803 7.55025 14.6003C7.22025 14.3503 7.15029 13.8803 7.40029 13.5503C7.65029 13.2203 8.12027 13.1503 8.45027 13.4003C10.5403 14.9703 13.4602 14.9703 15.5502 13.4003C15.8802 13.1503 16.3502 13.2203 16.6002 13.5503C16.8502 13.8803 16.7803 14.3503 16.4503 14.6003C15.1403 15.5803 13.5703 16.0703 12.0003 16.0703Z" fill="#575E83"/>
<path d="M12 11.75C10.48 11.75 9.25 10.52 9.25 9C9.25 7.48 10.48 6.25 12 6.25C13.52 6.25 14.75 7.48 14.75 9C14.75 10.52 13.52 11.75 12 11.75Z" fill="#575E83"/>
</svg>
