<svg width="24" height="24" viewBox="0 0 24 24" fill="none" xmlns="http://www.w3.org/2000/svg">
<path d="M9.99008 22.7499C9.79008 22.7499 9.63008 22.7099 9.51008 22.6599C9.11008 22.5099 8.43008 22.0199 8.43008 20.4699L9.43008 14.0199H6.09008C4.75008 14.0199 4.27008 13.3899 4.10008 13.0199C3.93008 12.6399 3.78008 11.8699 4.66008 10.8599L12.2301 2.25988C13.2501 1.09988 14.0801 1.17988 14.4801 1.32988C14.8801 1.47988 15.5601 1.96988 15.5601 3.51988L14.5601 9.96988H17.9001C19.2401 9.96988 19.7201 10.5999 19.8901 10.9699C20.0601 11.3499 20.2101 12.1199 19.3301 13.1299L11.7601 21.7299C11.0501 22.5399 10.4301 22.7499 9.99008 22.7499Z" fill="#9FA3B7"/>
</svg>
