<svg width="36" height="36" viewBox="0 0 36 36" fill="none" xmlns="http://www.w3.org/2000/svg">
<g clip-path="url(#clip0_1_1424)">
<rect width="36" height="36" rx="8" fill="#DFE2E9"/>
<g clip-path="url(#clip1_1_1424)">
<path d="M21.5623 25.6045H13.3337C12.912 25.6045 12.5623 25.2547 12.5623 24.833C12.5623 24.4113 12.912 24.0616 13.3337 24.0616H21.5623C23.9691 24.0616 25.9337 22.097 25.9337 19.6902C25.9337 17.2833 23.9691 15.3187 21.5623 15.3187H10.248C9.82628 15.3187 9.47656 14.969 9.47656 14.5473C9.47656 14.1256 9.82628 13.7759 10.248 13.7759H21.5623C24.8228 13.7759 27.4766 16.4296 27.4766 19.6902C27.4766 22.9507 24.8228 25.6045 21.5623 25.6045Z" fill="#9FA3B7"/>
<path d="M12.6139 17.8903C12.4185 17.8903 12.2231 17.8183 12.0688 17.664L9.43563 15.0309C9.13734 14.7326 9.13734 14.2389 9.43563 13.9406L12.0688 11.3075C12.3671 11.0092 12.8608 11.0092 13.1591 11.3075C13.4573 11.6057 13.4573 12.0995 13.1591 12.3977L11.0711 14.4857L13.1591 16.5737C13.4573 16.872 13.4573 17.3657 13.1591 17.664C13.0151 17.8183 12.8093 17.8903 12.6139 17.8903Z" fill="#9FA3B7"/>
</g>
</g>
<defs>
<clipPath id="clip0_1_1424">
<rect width="36" height="36" fill="white"/>
</clipPath>
<clipPath id="clip1_1_1424">
<rect width="24.6857" height="24.6857" fill="white" transform="translate(6 6)"/>
</clipPath>
</defs>
</svg>
