<svg width="20" height="20" viewBox="0 0 20 20" fill="none" xmlns="http://www.w3.org/2000/svg">
<path d="M10 0C15.51 0 20 4.49 20 10C20 15.51 15.51 20 10 20C4.49 20 0 15.51 0 10C0 4.49 4.49 0 10 0ZM10 13C9.44771 13 9 13.4477 9 14C9 14.5523 9.44771 15 10 15C10.5523 15 11 14.5523 11 14C11 13.4477 10.5523 13 10 13ZM10 9C9.44771 9 9 9.44771 9 10C9 10.5523 9.44771 11 10 11C10.5523 11 11 10.5523 11 10C11 9.44771 10.5523 9 10 9ZM10 5C9.44771 5 9 5.44772 9 6C9 6.55228 9.44771 7 10 7C10.5523 7 11 6.55228 11 6C11 5.44772 10.5523 5 10 5Z" fill="currentColor"/>
</svg>
