<svg width="17" height="17" viewBox="0 0 17 17" fill="none" xmlns="http://www.w3.org/2000/svg">
<path d="M8.33333 16.6665C3.74167 16.6665 0 12.9248 0 8.33317C0 3.7415 3.74167 -0.000162125 8.33333 -0.000162125C12.925 -0.000162125 16.6667 3.7415 16.6667 8.33317C16.6667 12.9248 12.925 16.6665 8.33333 16.6665ZM7.70833 11.6665C7.70833 12.0082 7.99167 12.2915 8.33333 12.2915C8.675 12.2915 8.95833 12.0082 8.95833 11.6665V7.49984C8.95833 7.15817 8.675 6.87484 8.33333 6.87484C7.99167 6.87484 7.70833 7.15817 7.70833 7.49984V11.6665ZM9.1 4.68317C9.05833 4.57484 9 4.4915 8.925 4.40817C8.84167 4.33317 8.75 4.27484 8.65 4.23317C8.55 4.1915 8.44167 4.1665 8.33333 4.1665C8.225 4.1665 8.11667 4.1915 8.01667 4.23317C7.91667 4.27484 7.825 4.33317 7.74167 4.40817C7.66667 4.4915 7.60833 4.57484 7.56667 4.68317C7.525 4.78317 7.5 4.8915 7.5 4.99984C7.5 5.10817 7.525 5.2165 7.56667 5.3165C7.60833 5.4165 7.66667 5.50817 7.74167 5.5915C7.825 5.6665 7.91667 5.72484 8.01667 5.7665C8.21667 5.84984 8.45 5.84984 8.65 5.7665C8.75 5.72484 8.84167 5.6665 8.925 5.5915C9 5.50817 9.05833 5.4165 9.1 5.3165C9.14167 5.2165 9.16667 5.10817 9.16667 4.99984C9.16667 4.8915 9.14167 4.78317 9.1 4.68317Z" fill="#9FA3B7"/>
</svg>
