<svg width="24" height="24" viewBox="0 0 24 24" fill="none" xmlns="http://www.w3.org/2000/svg">
<path d="M15.2044 13.4548C11.9648 12.5604 11.4396 12.0352 10.5452 8.7956C10.4152 8.3276 9.9888 8 9.5 8C9.0112 8 8.5848 8.3224 8.4548 8.7956C7.5604 12.0352 7.0352 12.5604 3.7956 13.4548C3.3276 13.5848 3 14.0112 3 14.5C3 14.9888 3.3224 15.4152 3.7956 15.5452C7.0352 16.4396 7.5604 16.9648 8.4548 20.2044C8.5848 20.6724 9.0112 21 9.5 21C9.9888 21 10.4152 20.6776 10.5452 20.2044C11.4396 16.9648 11.9648 16.4396 15.2044 15.5452C15.6724 15.4152 16 14.9888 16 14.5C16 14.0112 15.6776 13.5848 15.2044 13.4548Z" fill="#9FA3B7"/>
<path d="M20.5716 6.9372C18.8272 6.4556 18.5444 6.1728 18.0628 4.4284C17.9928 4.1764 17.7632 4 17.5 4C17.2368 4 17.0072 4.1736 16.9372 4.4284C16.4556 6.1728 16.1728 6.4556 14.4284 6.9372C14.1764 7.0072 14 7.2368 14 7.5C14 7.7632 14.1736 7.9928 14.4284 8.0628C16.1728 8.5444 16.4556 8.8272 16.9372 10.5716C17.0072 10.8236 17.2368 11 17.5 11C17.7632 11 17.9928 10.8264 18.0628 10.5716C18.5444 8.8272 18.8272 8.5444 20.5716 8.0628C20.8236 7.9928 21 7.7632 21 7.5C21 7.2368 20.8264 7.0072 20.5716 6.9372Z" fill="#9FA3B7"/>
</svg>
