<svg width="24" height="24" viewBox="0 0 24 24" fill="none" xmlns="http://www.w3.org/2000/svg">
<path d="M19.9011 5.63334C18.4986 5.48735 17.0961 5.37787 15.6849 5.29575V5.28662L15.4933 4.10049C15.3626 3.26108 15.171 2.00195 13.1326 2.00195H10.8504C8.82071 2.00195 8.62907 3.20633 8.48969 4.09137L8.30676 5.25925C7.49664 5.314 6.68652 5.36874 5.8764 5.45086L4.09937 5.63334C3.73351 5.66984 3.47218 6.00743 3.50702 6.38152C3.54186 6.7556 3.85546 7.02933 4.22132 6.99283L5.99836 6.81035C10.5629 6.33589 15.1623 6.51838 19.7791 7.00195C19.8052 7.00195 19.8227 7.00195 19.8488 7.00195C20.1798 7.00195 20.4673 6.73735 20.5021 6.38152C20.5282 6.00743 20.2669 5.66984 19.9011 5.63334Z" fill="#9FA3B7"/>
<path d="M18.2103 8.36571C18.0043 8.13253 17.721 8.00195 17.4291 8.00195H6.57867C6.2868 8.00195 5.99494 8.13253 5.7975 8.36571C5.60006 8.59889 5.48847 8.91601 5.50564 9.24246L6.03786 18.8121C6.13229 20.2298 6.25247 22.002 9.24837 22.002H14.7594C17.7553 22.002 17.8755 20.2391 17.97 18.8121L18.5022 9.25179C18.5193 8.91601 18.4078 8.59889 18.2103 8.36571ZM13.4289 17.3291H10.5703C10.2184 17.3291 9.92652 17.0119 9.92652 16.6295C9.92652 16.2471 10.2184 15.93 10.5703 15.93H13.4289C13.7808 15.93 14.0727 16.2471 14.0727 16.6295C14.0727 17.0119 13.7808 17.3291 13.4289 17.3291ZM14.15 13.5982H9.85785C9.50589 13.5982 9.21403 13.2811 9.21403 12.8987C9.21403 12.5163 9.50589 12.1992 9.85785 12.1992H14.15C14.5019 12.1992 14.7938 12.5163 14.7938 12.8987C14.7938 13.2811 14.5019 13.5982 14.15 13.5982Z" fill="#9FA3B7"/>
</svg>
